<mxfile host="app.diagrams.net" modified="2024-02-06T12:50:49.469Z" agent="Mozilla/5.0 (Windows NT 10.0; Win64; x64) AppleWebKit/537.36 (KHTML, like Gecko) Chrome/121.0.0.0 Safari/537.36" etag="bjKq38AxAJvrCHPxVkqe" version="23.1.1" type="device">
  <diagram name="PÃ¡gina-1" id="VFs-BVfmjp7O5fnvSraG">
    <mxGraphModel dx="1647" dy="877" grid="1" gridSize="10" guides="1" tooltips="1" connect="1" arrows="1" fold="1" page="1" pageScale="1" pageWidth="827" pageHeight="1169" math="0" shadow="0">
      <root>
        <mxCell id="0" />
        <mxCell id="1" parent="0" />
        <mxCell id="HM8f5L7QsOCiF3hBc2ee-13" style="edgeStyle=orthogonalEdgeStyle;rounded=0;orthogonalLoop=1;jettySize=auto;html=1;exitX=1;exitY=0.5;exitDx=0;exitDy=0;entryX=0.018;entryY=0.6;entryDx=0;entryDy=0;entryPerimeter=0;fontSize=20;" parent="1" source="HM8f5L7QsOCiF3hBc2ee-1" target="HM8f5L7QsOCiF3hBc2ee-3" edge="1">
          <mxGeometry relative="1" as="geometry">
            <Array as="points">
              <mxPoint x="350" y="466" />
            </Array>
          </mxGeometry>
        </mxCell>
        <mxCell id="HM8f5L7QsOCiF3hBc2ee-1" value="" style="rounded=0;whiteSpace=wrap;html=1;fontSize=20;fillColor=#d5e8d4;strokeColor=#82b366;" parent="1" vertex="1">
          <mxGeometry x="160" y="430" width="190" height="60" as="geometry" />
        </mxCell>
        <mxCell id="HM8f5L7QsOCiF3hBc2ee-2" value="testng.xml" style="text;html=1;strokeColor=none;fillColor=none;align=center;verticalAlign=middle;whiteSpace=wrap;rounded=0;fontSize=20;" parent="1" vertex="1">
          <mxGeometry x="200" y="445" width="120" height="30" as="geometry" />
        </mxCell>
        <mxCell id="HM8f5L7QsOCiF3hBc2ee-14" style="edgeStyle=orthogonalEdgeStyle;rounded=0;orthogonalLoop=1;jettySize=auto;html=1;exitX=0.5;exitY=1;exitDx=0;exitDy=0;entryX=0.5;entryY=0;entryDx=0;entryDy=0;fontSize=20;" parent="1" source="HM8f5L7QsOCiF3hBc2ee-3" target="HM8f5L7QsOCiF3hBc2ee-7" edge="1">
          <mxGeometry relative="1" as="geometry" />
        </mxCell>
        <mxCell id="HM8f5L7QsOCiF3hBc2ee-15" style="edgeStyle=orthogonalEdgeStyle;rounded=0;orthogonalLoop=1;jettySize=auto;html=1;exitX=1;exitY=0.25;exitDx=0;exitDy=0;entryX=0;entryY=0.5;entryDx=0;entryDy=0;fontSize=20;" parent="1" source="HM8f5L7QsOCiF3hBc2ee-3" target="HM8f5L7QsOCiF3hBc2ee-9" edge="1">
          <mxGeometry relative="1" as="geometry" />
        </mxCell>
        <mxCell id="HM8f5L7QsOCiF3hBc2ee-16" style="edgeStyle=orthogonalEdgeStyle;rounded=0;orthogonalLoop=1;jettySize=auto;html=1;exitX=1;exitY=0.75;exitDx=0;exitDy=0;entryX=-0.016;entryY=0.64;entryDx=0;entryDy=0;entryPerimeter=0;fontSize=20;" parent="1" source="HM8f5L7QsOCiF3hBc2ee-3" target="HM8f5L7QsOCiF3hBc2ee-11" edge="1">
          <mxGeometry relative="1" as="geometry" />
        </mxCell>
        <mxCell id="HM8f5L7QsOCiF3hBc2ee-3" value="" style="rounded=0;whiteSpace=wrap;html=1;fontSize=20;fillColor=#d5e8d4;strokeColor=#82b366;" parent="1" vertex="1">
          <mxGeometry x="520" y="430" width="230" height="60" as="geometry" />
        </mxCell>
        <mxCell id="HM8f5L7QsOCiF3hBc2ee-4" value="WebDriverListener" style="text;html=1;align=center;verticalAlign=middle;whiteSpace=wrap;rounded=0;fontSize=20;" parent="1" vertex="1">
          <mxGeometry x="576" y="445" width="120" height="30" as="geometry" />
        </mxCell>
        <mxCell id="HM8f5L7QsOCiF3hBc2ee-7" value="" style="rounded=0;whiteSpace=wrap;html=1;fontSize=20;" parent="1" vertex="1">
          <mxGeometry x="520" y="542" width="230" height="68" as="geometry" />
        </mxCell>
        <mxCell id="HM8f5L7QsOCiF3hBc2ee-8" value="&lt;div style=&quot;font-size: 20px;&quot;&gt;beforeInvocation&lt;/div&gt;&lt;div style=&quot;font-size: 20px;&quot;&gt;&lt;span style=&quot;font-size: 20px;&quot;&gt;afterInvocation&lt;/span&gt;&lt;/div&gt;" style="text;html=1;strokeColor=none;fillColor=none;align=center;verticalAlign=middle;whiteSpace=wrap;rounded=0;fontSize=20;" parent="1" vertex="1">
          <mxGeometry x="605" y="549" width="65" height="50" as="geometry" />
        </mxCell>
        <mxCell id="HM8f5L7QsOCiF3hBc2ee-54" style="edgeStyle=orthogonalEdgeStyle;rounded=0;orthogonalLoop=1;jettySize=auto;html=1;exitX=0.5;exitY=0;exitDx=0;exitDy=0;entryX=0.474;entryY=1.015;entryDx=0;entryDy=0;entryPerimeter=0;" parent="1" source="HM8f5L7QsOCiF3hBc2ee-9" target="HM8f5L7QsOCiF3hBc2ee-17" edge="1">
          <mxGeometry relative="1" as="geometry" />
        </mxCell>
        <mxCell id="HM8f5L7QsOCiF3hBc2ee-9" value="" style="rounded=0;whiteSpace=wrap;html=1;fontSize=20;fillColor=#d5e8d4;strokeColor=#82b366;" parent="1" vertex="1">
          <mxGeometry x="860" y="380" width="220" height="60" as="geometry" />
        </mxCell>
        <mxCell id="HM8f5L7QsOCiF3hBc2ee-10" value="LocalDriverFactory" style="text;html=1;strokeColor=none;fillColor=none;align=center;verticalAlign=middle;whiteSpace=wrap;rounded=0;fontSize=20;" parent="1" vertex="1">
          <mxGeometry x="933" y="395" width="60" height="30" as="geometry" />
        </mxCell>
        <mxCell id="HM8f5L7QsOCiF3hBc2ee-55" style="edgeStyle=orthogonalEdgeStyle;rounded=0;orthogonalLoop=1;jettySize=auto;html=1;exitX=0.5;exitY=1;exitDx=0;exitDy=0;entryX=0.5;entryY=0;entryDx=0;entryDy=0;" parent="1" source="HM8f5L7QsOCiF3hBc2ee-11" target="HM8f5L7QsOCiF3hBc2ee-19" edge="1">
          <mxGeometry relative="1" as="geometry" />
        </mxCell>
        <mxCell id="HM8f5L7QsOCiF3hBc2ee-11" value="" style="rounded=0;whiteSpace=wrap;html=1;fontSize=20;fillColor=#d5e8d4;strokeColor=#82b366;" parent="1" vertex="1">
          <mxGeometry x="860" y="475" width="220" height="60" as="geometry" />
        </mxCell>
        <mxCell id="HM8f5L7QsOCiF3hBc2ee-12" value="DriverSingleton" style="text;html=1;strokeColor=none;fillColor=none;align=center;verticalAlign=middle;whiteSpace=wrap;rounded=0;fontSize=20;" parent="1" vertex="1">
          <mxGeometry x="941" y="490" width="60" height="30" as="geometry" />
        </mxCell>
        <mxCell id="HM8f5L7QsOCiF3hBc2ee-17" value="" style="rounded=0;whiteSpace=wrap;html=1;fontSize=20;" parent="1" vertex="1">
          <mxGeometry x="837" y="240" width="280" height="80" as="geometry" />
        </mxCell>
        <mxCell id="HM8f5L7QsOCiF3hBc2ee-18" value="&lt;div style=&quot;font-size: 20px;&quot;&gt;chromedriver&lt;/div&gt;&lt;div style=&quot;font-size: 20px;&quot;&gt;&lt;span style=&quot;font-size: 20px;&quot;&gt;Dimension navegador&lt;/span&gt;&lt;/div&gt;&lt;span style=&quot;background-color: initial; font-size: 20px;&quot;&gt;url&lt;/span&gt;" style="text;html=1;strokeColor=none;fillColor=none;align=center;verticalAlign=middle;whiteSpace=wrap;rounded=0;fontSize=20;" parent="1" vertex="1">
          <mxGeometry x="827" y="265" width="290" height="30" as="geometry" />
        </mxCell>
        <mxCell id="HM8f5L7QsOCiF3hBc2ee-19" value="" style="rounded=0;whiteSpace=wrap;html=1;fontSize=20;" parent="1" vertex="1">
          <mxGeometry x="810" y="605" width="320" height="65" as="geometry" />
        </mxCell>
        <mxCell id="HM8f5L7QsOCiF3hBc2ee-20" value="&lt;div style=&quot;font-size: 20px;&quot;&gt;WebDriver getDriver()&lt;/div&gt;&lt;div style=&quot;font-size: 20px;&quot;&gt;&lt;span style=&quot;font-size: 20px;&quot;&gt;setWebDriver(WebDriver driver)&lt;/span&gt;&lt;/div&gt;" style="text;html=1;strokeColor=none;fillColor=none;align=center;verticalAlign=middle;whiteSpace=wrap;rounded=0;fontSize=20;" parent="1" vertex="1">
          <mxGeometry x="806" y="619" width="330" height="30" as="geometry" />
        </mxCell>
        <mxCell id="HM8f5L7QsOCiF3hBc2ee-57" style="edgeStyle=orthogonalEdgeStyle;rounded=0;orthogonalLoop=1;jettySize=auto;html=1;exitX=1;exitY=0.5;exitDx=0;exitDy=0;" parent="1" source="HM8f5L7QsOCiF3hBc2ee-24" edge="1">
          <mxGeometry relative="1" as="geometry">
            <mxPoint x="440" y="470" as="targetPoint" />
          </mxGeometry>
        </mxCell>
        <mxCell id="HM8f5L7QsOCiF3hBc2ee-24" value="testLogin" style="text;html=1;strokeColor=#6c8ebf;fillColor=#dae8fc;align=center;verticalAlign=middle;whiteSpace=wrap;rounded=0;fontSize=20;" parent="1" vertex="1">
          <mxGeometry x="160" y="520" width="190" height="50" as="geometry" />
        </mxCell>
        <mxCell id="HM8f5L7QsOCiF3hBc2ee-59" style="edgeStyle=orthogonalEdgeStyle;rounded=0;orthogonalLoop=1;jettySize=auto;html=1;exitX=1;exitY=0.5;exitDx=0;exitDy=0;" parent="1" source="HM8f5L7QsOCiF3hBc2ee-26" edge="1">
          <mxGeometry relative="1" as="geometry">
            <mxPoint x="440" y="550" as="targetPoint" />
          </mxGeometry>
        </mxCell>
        <mxCell id="HM8f5L7QsOCiF3hBc2ee-26" value="testCreateBoard" style="text;html=1;strokeColor=#6c8ebf;fillColor=#dae8fc;align=center;verticalAlign=middle;whiteSpace=wrap;rounded=0;fontSize=20;" parent="1" vertex="1">
          <mxGeometry x="160" y="600" width="190" height="50" as="geometry" />
        </mxCell>
        <mxCell id="HM8f5L7QsOCiF3hBc2ee-61" style="edgeStyle=orthogonalEdgeStyle;rounded=0;orthogonalLoop=1;jettySize=auto;html=1;exitX=1;exitY=0.5;exitDx=0;exitDy=0;" parent="1" source="HM8f5L7QsOCiF3hBc2ee-28" edge="1">
          <mxGeometry relative="1" as="geometry">
            <mxPoint x="440" y="630" as="targetPoint" />
          </mxGeometry>
        </mxCell>
        <mxCell id="HM8f5L7QsOCiF3hBc2ee-28" value="testCreateList" style="text;html=1;strokeColor=#6c8ebf;fillColor=#dae8fc;align=center;verticalAlign=middle;whiteSpace=wrap;rounded=0;fontSize=20;" parent="1" vertex="1">
          <mxGeometry x="160" y="680" width="190" height="50" as="geometry" />
        </mxCell>
        <mxCell id="HM8f5L7QsOCiF3hBc2ee-63" style="edgeStyle=orthogonalEdgeStyle;rounded=0;orthogonalLoop=1;jettySize=auto;html=1;exitX=1;exitY=0.5;exitDx=0;exitDy=0;" parent="1" source="HM8f5L7QsOCiF3hBc2ee-30" edge="1">
          <mxGeometry relative="1" as="geometry">
            <mxPoint x="440" y="710" as="targetPoint" />
          </mxGeometry>
        </mxCell>
        <mxCell id="HM8f5L7QsOCiF3hBc2ee-30" value="testCreateCard" style="text;html=1;strokeColor=#6c8ebf;fillColor=#dae8fc;align=center;verticalAlign=middle;whiteSpace=wrap;rounded=0;fontSize=20;" parent="1" vertex="1">
          <mxGeometry x="160" y="760" width="190" height="50" as="geometry" />
        </mxCell>
        <mxCell id="HM8f5L7QsOCiF3hBc2ee-65" style="edgeStyle=orthogonalEdgeStyle;rounded=0;orthogonalLoop=1;jettySize=auto;html=1;exitX=1;exitY=0.5;exitDx=0;exitDy=0;" parent="1" source="HM8f5L7QsOCiF3hBc2ee-32" edge="1">
          <mxGeometry relative="1" as="geometry">
            <mxPoint x="440" y="780" as="targetPoint" />
          </mxGeometry>
        </mxCell>
        <mxCell id="HM8f5L7QsOCiF3hBc2ee-32" value="testLogOut" style="text;html=1;strokeColor=#6c8ebf;fillColor=#dae8fc;align=center;verticalAlign=middle;whiteSpace=wrap;rounded=0;fontSize=20;" parent="1" vertex="1">
          <mxGeometry x="160" y="840" width="190" height="50" as="geometry" />
        </mxCell>
        <mxCell id="HM8f5L7QsOCiF3hBc2ee-51" value="" style="rounded=0;whiteSpace=wrap;html=1;fontSize=20;" parent="1" vertex="1">
          <mxGeometry x="70" y="600" width="60" height="290" as="geometry" />
        </mxCell>
        <mxCell id="HM8f5L7QsOCiF3hBc2ee-52" value="dependsOnMethods" style="text;html=1;strokeColor=none;fillColor=none;align=center;verticalAlign=middle;whiteSpace=wrap;rounded=0;rotation=-90;fontSize=20;" parent="1" vertex="1">
          <mxGeometry x="-32.5" y="732.5" width="265" height="30" as="geometry" />
        </mxCell>
      </root>
    </mxGraphModel>
  </diagram>
</mxfile>
